<mxfile host="app.diagrams.net" modified="2022-09-01T08:01:05.634Z" agent="5.0 (Windows NT 10.0; Win64; x64) AppleWebKit/537.36 (KHTML, like Gecko) Chrome/104.0.0.0 Safari/537.36" etag="9WY2M5NTQBXA6Qgzy-2M" version="20.2.7" type="github">
  <diagram id="1EfP_lXUCfKxNyaN4iCH" name="Page-1">
    <mxGraphModel dx="768" dy="527" grid="1" gridSize="10" guides="1" tooltips="1" connect="1" arrows="1" fold="1" page="1" pageScale="1" pageWidth="850" pageHeight="1100" math="0" shadow="0">
      <root>
        <mxCell id="0" />
        <mxCell id="1" parent="0" />
        <mxCell id="_1fh3I2R6nJCxE8OLh3C-30" value="" style="rounded=0;whiteSpace=wrap;html=1;" vertex="1" parent="1">
          <mxGeometry x="100" y="860" width="700" height="40" as="geometry" />
        </mxCell>
        <mxCell id="_1fh3I2R6nJCxE8OLh3C-28" value="" style="rounded=0;whiteSpace=wrap;html=1;" vertex="1" parent="1">
          <mxGeometry x="100" y="620" width="700" height="210" as="geometry" />
        </mxCell>
        <mxCell id="_1fh3I2R6nJCxE8OLh3C-2" value="" style="rounded=0;whiteSpace=wrap;html=1;" vertex="1" parent="1">
          <mxGeometry x="100" y="520" width="700" height="59" as="geometry" />
        </mxCell>
        <mxCell id="_1fh3I2R6nJCxE8OLh3C-3" value="Motor_SWC" style="text;html=1;strokeColor=none;fillColor=none;align=left;verticalAlign=middle;whiteSpace=wrap;rounded=0;" vertex="1" parent="1">
          <mxGeometry x="103" y="520" width="60" height="30" as="geometry" />
        </mxCell>
        <mxCell id="_1fh3I2R6nJCxE8OLh3C-4" value="" style="rounded=0;whiteSpace=wrap;html=1;" vertex="1" parent="1">
          <mxGeometry x="277.5" y="630" width="195" height="190" as="geometry" />
        </mxCell>
        <mxCell id="_1fh3I2R6nJCxE8OLh3C-5" value="IohwAbs" style="text;html=1;strokeColor=none;fillColor=none;align=left;verticalAlign=middle;whiteSpace=wrap;rounded=0;" vertex="1" parent="1">
          <mxGeometry x="280" y="630" width="60" height="30" as="geometry" />
        </mxCell>
        <mxCell id="_1fh3I2R6nJCxE8OLh3C-6" value="" style="rounded=0;whiteSpace=wrap;html=1;" vertex="1" parent="1">
          <mxGeometry x="520" y="630" width="260" height="190" as="geometry" />
        </mxCell>
        <mxCell id="_1fh3I2R6nJCxE8OLh3C-7" value="CDD" style="text;html=1;strokeColor=none;fillColor=none;align=left;verticalAlign=middle;whiteSpace=wrap;rounded=0;" vertex="1" parent="1">
          <mxGeometry x="530" y="630" width="60" height="30" as="geometry" />
        </mxCell>
        <mxCell id="_1fh3I2R6nJCxE8OLh3C-25" value="Angle, Speed" style="edgeStyle=orthogonalEdgeStyle;rounded=0;orthogonalLoop=1;jettySize=auto;html=1;entryX=0.288;entryY=1.03;entryDx=0;entryDy=0;entryPerimeter=0;exitX=1;exitY=0.5;exitDx=0;exitDy=0;" edge="1" parent="1" source="_1fh3I2R6nJCxE8OLh3C-43" target="_1fh3I2R6nJCxE8OLh3C-15">
          <mxGeometry relative="1" as="geometry">
            <mxPoint x="455" y="770.0285714285715" as="sourcePoint" />
          </mxGeometry>
        </mxCell>
        <mxCell id="_1fh3I2R6nJCxE8OLh3C-40" style="edgeStyle=orthogonalEdgeStyle;rounded=0;orthogonalLoop=1;jettySize=auto;html=1;entryX=0.5;entryY=0;entryDx=0;entryDy=0;" edge="1" parent="1" target="_1fh3I2R6nJCxE8OLh3C-32">
          <mxGeometry relative="1" as="geometry">
            <mxPoint x="340" y="780" as="sourcePoint" />
            <Array as="points">
              <mxPoint x="340" y="780" />
              <mxPoint x="340" y="840" />
              <mxPoint x="405" y="840" />
            </Array>
          </mxGeometry>
        </mxCell>
        <mxCell id="_1fh3I2R6nJCxE8OLh3C-16" value="" style="edgeStyle=orthogonalEdgeStyle;rounded=0;orthogonalLoop=1;jettySize=auto;html=1;exitX=1;exitY=0.5;exitDx=0;exitDy=0;entryX=0;entryY=0.5;entryDx=0;entryDy=0;" edge="1" parent="1" source="_1fh3I2R6nJCxE8OLh3C-42" target="_1fh3I2R6nJCxE8OLh3C-15">
          <mxGeometry relative="1" as="geometry">
            <mxPoint x="455.5" y="740" as="sourcePoint" />
          </mxGeometry>
        </mxCell>
        <mxCell id="_1fh3I2R6nJCxE8OLh3C-12" value="IohwAbs_Mainfunction" style="rounded=0;whiteSpace=wrap;html=1;" vertex="1" parent="1">
          <mxGeometry x="294.5" y="670" width="161" height="20" as="geometry" />
        </mxCell>
        <mxCell id="_1fh3I2R6nJCxE8OLh3C-41" style="edgeStyle=orthogonalEdgeStyle;rounded=0;orthogonalLoop=1;jettySize=auto;html=1;exitX=0.25;exitY=1;exitDx=0;exitDy=0;entryX=0.5;entryY=0;entryDx=0;entryDy=0;" edge="1" parent="1" source="_1fh3I2R6nJCxE8OLh3C-13" target="_1fh3I2R6nJCxE8OLh3C-34">
          <mxGeometry relative="1" as="geometry">
            <Array as="points">
              <mxPoint x="310" y="720" />
              <mxPoint x="310" y="840" />
              <mxPoint x="330" y="840" />
            </Array>
          </mxGeometry>
        </mxCell>
        <mxCell id="_1fh3I2R6nJCxE8OLh3C-13" value="EnableMotor" style="rounded=0;whiteSpace=wrap;html=1;" vertex="1" parent="1">
          <mxGeometry x="295" y="700" width="160" height="20" as="geometry" />
        </mxCell>
        <mxCell id="_1fh3I2R6nJCxE8OLh3C-22" value="Duty cycle" style="edgeStyle=orthogonalEdgeStyle;rounded=0;orthogonalLoop=1;jettySize=auto;html=1;entryX=1;entryY=0.5;entryDx=0;entryDy=0;" edge="1" parent="1" target="_1fh3I2R6nJCxE8OLh3C-37">
          <mxGeometry relative="1" as="geometry">
            <mxPoint x="680" y="750" as="sourcePoint" />
            <mxPoint x="674" y="870" as="targetPoint" />
            <Array as="points">
              <mxPoint x="680" y="750" />
              <mxPoint x="680" y="800" />
            </Array>
          </mxGeometry>
        </mxCell>
        <mxCell id="_1fh3I2R6nJCxE8OLh3C-15" value="Cdd_Motor_Mainfunction_HRate" style="rounded=0;whiteSpace=wrap;html=1;" vertex="1" parent="1">
          <mxGeometry x="550" y="730" width="190" height="20" as="geometry" />
        </mxCell>
        <mxCell id="_1fh3I2R6nJCxE8OLh3C-17" value="Cdd_Motor_Mainfunction_LRate" style="rounded=0;whiteSpace=wrap;html=1;" vertex="1" parent="1">
          <mxGeometry x="550" y="690" width="190" height="20" as="geometry" />
        </mxCell>
        <mxCell id="_1fh3I2R6nJCxE8OLh3C-20" value="Event1ms" style="edgeStyle=orthogonalEdgeStyle;rounded=0;orthogonalLoop=1;jettySize=auto;html=1;exitX=0.75;exitY=0;exitDx=0;exitDy=0;entryX=1;entryY=0.25;entryDx=0;entryDy=0;" edge="1" parent="1" source="_1fh3I2R6nJCxE8OLh3C-17" target="_1fh3I2R6nJCxE8OLh3C-17">
          <mxGeometry relative="1" as="geometry" />
        </mxCell>
        <mxCell id="_1fh3I2R6nJCxE8OLh3C-26" value="" style="rounded=0;whiteSpace=wrap;html=1;" vertex="1" parent="1">
          <mxGeometry x="100" y="589" width="700" height="20" as="geometry" />
        </mxCell>
        <mxCell id="_1fh3I2R6nJCxE8OLh3C-27" value="RTE" style="text;html=1;strokeColor=none;fillColor=none;align=left;verticalAlign=middle;whiteSpace=wrap;rounded=0;" vertex="1" parent="1">
          <mxGeometry x="103" y="584" width="60" height="30" as="geometry" />
        </mxCell>
        <mxCell id="_1fh3I2R6nJCxE8OLh3C-29" value="BSW" style="text;html=1;strokeColor=none;fillColor=none;align=left;verticalAlign=middle;whiteSpace=wrap;rounded=0;" vertex="1" parent="1">
          <mxGeometry x="103" y="620" width="60" height="30" as="geometry" />
        </mxCell>
        <mxCell id="_1fh3I2R6nJCxE8OLh3C-31" value="PWM" style="rounded=0;whiteSpace=wrap;html=1;" vertex="1" parent="1">
          <mxGeometry x="455" y="870" width="50" height="20" as="geometry" />
        </mxCell>
        <mxCell id="_1fh3I2R6nJCxE8OLh3C-32" value="ICU" style="rounded=0;whiteSpace=wrap;html=1;" vertex="1" parent="1">
          <mxGeometry x="380" y="870" width="50" height="20" as="geometry" />
        </mxCell>
        <mxCell id="_1fh3I2R6nJCxE8OLh3C-44" value="Trigger20ms" style="edgeStyle=orthogonalEdgeStyle;rounded=0;orthogonalLoop=1;jettySize=auto;html=1;exitX=0.5;exitY=0;exitDx=0;exitDy=0;entryX=0;entryY=0.5;entryDx=0;entryDy=0;" edge="1" parent="1" source="_1fh3I2R6nJCxE8OLh3C-33" target="_1fh3I2R6nJCxE8OLh3C-42">
          <mxGeometry relative="1" as="geometry" />
        </mxCell>
        <mxCell id="_1fh3I2R6nJCxE8OLh3C-33" value="ADC" style="rounded=0;whiteSpace=wrap;html=1;" vertex="1" parent="1">
          <mxGeometry x="230" y="870" width="50" height="20" as="geometry" />
        </mxCell>
        <mxCell id="_1fh3I2R6nJCxE8OLh3C-34" value="DIO" style="rounded=0;whiteSpace=wrap;html=1;" vertex="1" parent="1">
          <mxGeometry x="305" y="870" width="50" height="20" as="geometry" />
        </mxCell>
        <mxCell id="_1fh3I2R6nJCxE8OLh3C-38" style="edgeStyle=orthogonalEdgeStyle;rounded=0;orthogonalLoop=1;jettySize=auto;html=1;exitX=0.75;exitY=1;exitDx=0;exitDy=0;" edge="1" parent="1" source="_1fh3I2R6nJCxE8OLh3C-37" target="_1fh3I2R6nJCxE8OLh3C-31">
          <mxGeometry relative="1" as="geometry" />
        </mxCell>
        <mxCell id="_1fh3I2R6nJCxE8OLh3C-37" value="SetPWM" style="rounded=0;whiteSpace=wrap;html=1;" vertex="1" parent="1">
          <mxGeometry x="294" y="790" width="161" height="20" as="geometry" />
        </mxCell>
        <mxCell id="_1fh3I2R6nJCxE8OLh3C-42" value="IohwAbs_Adc_Mainfunction" style="rounded=0;whiteSpace=wrap;html=1;" vertex="1" parent="1">
          <mxGeometry x="294.5" y="730" width="161" height="20" as="geometry" />
        </mxCell>
        <mxCell id="_1fh3I2R6nJCxE8OLh3C-43" value="Get Angle, Speed" style="rounded=0;whiteSpace=wrap;html=1;" vertex="1" parent="1">
          <mxGeometry x="294" y="760" width="161" height="20" as="geometry" />
        </mxCell>
        <mxCell id="_1fh3I2R6nJCxE8OLh3C-46" value="CAN" style="rounded=0;whiteSpace=wrap;html=1;" vertex="1" parent="1">
          <mxGeometry x="160" y="870" width="50" height="20" as="geometry" />
        </mxCell>
        <mxCell id="_1fh3I2R6nJCxE8OLh3C-47" value="CAN_If" style="rounded=0;whiteSpace=wrap;html=1;" vertex="1" parent="1">
          <mxGeometry x="160" y="790" width="50" height="20" as="geometry" />
        </mxCell>
        <mxCell id="_1fh3I2R6nJCxE8OLh3C-48" value="PduR" style="rounded=0;whiteSpace=wrap;html=1;" vertex="1" parent="1">
          <mxGeometry x="160" y="715" width="50" height="20" as="geometry" />
        </mxCell>
        <mxCell id="_1fh3I2R6nJCxE8OLh3C-51" style="edgeStyle=orthogonalEdgeStyle;rounded=0;orthogonalLoop=1;jettySize=auto;html=1;exitX=0.5;exitY=1;exitDx=0;exitDy=0;startArrow=classic;startFill=1;" edge="1" parent="1" source="_1fh3I2R6nJCxE8OLh3C-49" target="_1fh3I2R6nJCxE8OLh3C-48">
          <mxGeometry relative="1" as="geometry" />
        </mxCell>
        <mxCell id="_1fh3I2R6nJCxE8OLh3C-49" value="COM" style="rounded=0;whiteSpace=wrap;html=1;" vertex="1" parent="1">
          <mxGeometry x="160" y="635" width="50" height="20" as="geometry" />
        </mxCell>
        <mxCell id="_1fh3I2R6nJCxE8OLh3C-50" value="" style="endArrow=classic;startArrow=classic;html=1;rounded=0;entryX=0.5;entryY=1;entryDx=0;entryDy=0;" edge="1" parent="1" source="_1fh3I2R6nJCxE8OLh3C-46" target="_1fh3I2R6nJCxE8OLh3C-47">
          <mxGeometry width="50" height="50" relative="1" as="geometry">
            <mxPoint x="125" y="880" as="sourcePoint" />
            <mxPoint x="175" y="830" as="targetPoint" />
          </mxGeometry>
        </mxCell>
        <mxCell id="_1fh3I2R6nJCxE8OLh3C-52" value="" style="endArrow=classic;startArrow=classic;html=1;rounded=0;entryX=0.5;entryY=1;entryDx=0;entryDy=0;" edge="1" parent="1" source="_1fh3I2R6nJCxE8OLh3C-47" target="_1fh3I2R6nJCxE8OLh3C-48">
          <mxGeometry width="50" height="50" relative="1" as="geometry">
            <mxPoint x="140" y="785" as="sourcePoint" />
            <mxPoint x="190" y="735" as="targetPoint" />
          </mxGeometry>
        </mxCell>
        <mxCell id="_1fh3I2R6nJCxE8OLh3C-53" value="RE_Motor_SWC_Mainfunction" style="rounded=0;whiteSpace=wrap;html=1;" vertex="1" parent="1">
          <mxGeometry x="160" y="550" width="620" height="20" as="geometry" />
        </mxCell>
      </root>
    </mxGraphModel>
  </diagram>
</mxfile>
